<?xml version="1.0" encoding="UTF-8" standalone="no"?>
<!-- Created with Inkscape (http://www.inkscape.org/) -->

<svg
   xmlns:dc="http://purl.org/dc/elements/1.1/"
   xmlns:cc="http://creativecommons.org/ns#"
   xmlns:rdf="http://www.w3.org/1999/02/22-rdf-syntax-ns#"
   xmlns:svg="http://www.w3.org/2000/svg"
   xmlns="http://www.w3.org/2000/svg"
   xmlns:sodipodi="http://sodipodi.sourceforge.net/DTD/sodipodi-0.dtd"
   xmlns:inkscape="http://www.inkscape.org/namespaces/inkscape"
   width="744.09448819"
   height="1052.3622047"
   id="svg8978"
   version="1.1"
   inkscape:version="0.48.3.1 r9886"
   sodipodi:docname="design-package-uithemecomponents.svg">
  <defs
     id="defs8980">
    <clipPath
       id="id87">
      <path
         d="M 0,0 120,0 120,25 0,25 z"
         id="path1524"
         inkscape:connector-curvature="0" />
    </clipPath>
    <clipPath
       id="id88">
      <path
         d="M 0,0 110,0 110,1 0,1 z"
         id="path1533"
         inkscape:connector-curvature="0" />
    </clipPath>
    <clipPath
       id="id83">
      <path
         d="M 0,0 120,0 120,25 0,25 z"
         id="path1505"
         inkscape:connector-curvature="0" />
    </clipPath>
    <clipPath
       id="id84">
      <path
         d="M 0,0 110,0 110,1 0,1 z"
         id="path1514"
         inkscape:connector-curvature="0" />
    </clipPath>
    <clipPath
       id="id79">
      <path
         d="M 0,0 120,0 120,25 0,25 z"
         id="path1486"
         inkscape:connector-curvature="0" />
    </clipPath>
    <clipPath
       id="id80">
      <path
         d="M 0,0 110,0 110,1 0,1 z"
         id="path1495"
         inkscape:connector-curvature="0" />
    </clipPath>
    <clipPath
       id="id75">
      <path
         d="M 0,0 120,0 120,25 0,25 z"
         id="path1467"
         inkscape:connector-curvature="0" />
    </clipPath>
    <clipPath
       id="id76">
      <path
         d="M 0,0 110,0 110,1 0,1 z"
         id="path1476"
         inkscape:connector-curvature="0" />
    </clipPath>
    <clipPath
       id="id71">
      <path
         d="M 0,0 146,0 146,25 0,25 z"
         id="path1448"
         inkscape:connector-curvature="0" />
    </clipPath>
    <clipPath
       id="id72">
      <path
         d="M 0,0 136,0 136,1 0,1 z"
         id="path1457"
         inkscape:connector-curvature="0" />
    </clipPath>
    <clipPath
       id="id67">
      <path
         d="M 0,0 120,0 120,25 0,25 z"
         id="path1429"
         inkscape:connector-curvature="0" />
    </clipPath>
    <clipPath
       id="id68">
      <path
         d="M 0,0 110,0 110,1 0,1 z"
         id="path1438"
         inkscape:connector-curvature="0" />
    </clipPath>
    <clipPath
       id="id63">
      <path
         d="M 0,0 120,0 120,25 0,25 z"
         id="path1410"
         inkscape:connector-curvature="0" />
    </clipPath>
    <clipPath
       id="id64">
      <path
         d="M 0,0 110,0 110,1 0,1 z"
         id="path1419"
         inkscape:connector-curvature="0" />
    </clipPath>
    <clipPath
       id="id59">
      <path
         d="M 0,0 120,0 120,25 0,25 z"
         id="path1391"
         inkscape:connector-curvature="0" />
    </clipPath>
    <clipPath
       id="id60">
      <path
         d="M 0,0 110,0 110,1 0,1 z"
         id="path1400"
         inkscape:connector-curvature="0" />
    </clipPath>
    <clipPath
       id="id55">
      <path
         d="M 0,0 120,0 120,25 0,25 z"
         id="path1372"
         inkscape:connector-curvature="0" />
    </clipPath>
    <clipPath
       id="id56">
      <path
         d="M 0,0 110,0 110,1 0,1 z"
         id="path1381"
         inkscape:connector-curvature="0" />
    </clipPath>
    <clipPath
       id="id51">
      <path
         d="M 0,0 120,0 120,25 0,25 z"
         id="path1353"
         inkscape:connector-curvature="0" />
    </clipPath>
    <clipPath
       id="id52">
      <path
         d="M 0,0 110,0 110,1 0,1 z"
         id="path1362"
         inkscape:connector-curvature="0" />
    </clipPath>
    <clipPath
       id="id47">
      <path
         d="M 0,0 120,0 120,25 0,25 z"
         id="path1334"
         inkscape:connector-curvature="0" />
    </clipPath>
    <clipPath
       id="id48">
      <path
         d="M 0,0 110,0 110,1 0,1 z"
         id="path1343"
         inkscape:connector-curvature="0" />
    </clipPath>
    <clipPath
       id="id43">
      <path
         d="M 0,0 120,0 120,25 0,25 z"
         id="path1315"
         inkscape:connector-curvature="0" />
    </clipPath>
    <clipPath
       id="id44">
      <path
         d="M 0,0 110,0 110,1 0,1 z"
         id="path1324"
         inkscape:connector-curvature="0" />
    </clipPath>
    <clipPath
       id="id39">
      <path
         d="M 0,0 120,0 120,25 0,25 z"
         id="path1296"
         inkscape:connector-curvature="0" />
    </clipPath>
    <clipPath
       id="id40">
      <path
         d="M 0,0 110,0 110,1 0,1 z"
         id="path1305"
         inkscape:connector-curvature="0" />
    </clipPath>
    <clipPath
       id="id35">
      <path
         d="M 0,0 120,0 120,25 0,25 z"
         id="path1277"
         inkscape:connector-curvature="0" />
    </clipPath>
    <clipPath
       id="id36">
      <path
         d="M 0,0 110,0 110,1 0,1 z"
         id="path1286"
         inkscape:connector-curvature="0" />
    </clipPath>
    <clipPath
       id="id31">
      <path
         d="M 0,0 120,0 120,25 0,25 z"
         id="path1258"
         inkscape:connector-curvature="0" />
    </clipPath>
    <clipPath
       id="id32">
      <path
         d="M 0,0 110,0 110,1 0,1 z"
         id="path1267"
         inkscape:connector-curvature="0" />
    </clipPath>
    <clipPath
       id="id27">
      <path
         d="M 0,0 120,0 120,25 0,25 z"
         id="path1239"
         inkscape:connector-curvature="0" />
    </clipPath>
    <clipPath
       id="id28">
      <path
         d="M 0,0 110,0 110,1 0,1 z"
         id="path1248"
         inkscape:connector-curvature="0" />
    </clipPath>
    <clipPath
       id="id23">
      <path
         d="M 0,0 120,0 120,25 0,25 z"
         id="path1220"
         inkscape:connector-curvature="0" />
    </clipPath>
    <clipPath
       id="id24">
      <path
         d="M 0,0 110,0 110,1 0,1 z"
         id="path1229"
         inkscape:connector-curvature="0" />
    </clipPath>
    <clipPath
       id="id19">
      <path
         d="M 0,0 120,0 120,25 0,25 z"
         id="path1201"
         inkscape:connector-curvature="0" />
    </clipPath>
    <clipPath
       id="id20">
      <path
         d="M 0,0 110,0 110,1 0,1 z"
         id="path1210"
         inkscape:connector-curvature="0" />
    </clipPath>
    <clipPath
       id="id15">
      <path
         d="M 0,0 120,0 120,25 0,25 z"
         id="path1182"
         inkscape:connector-curvature="0" />
    </clipPath>
    <clipPath
       id="id16">
      <path
         d="M 0,0 110,0 110,1 0,1 z"
         id="path1191"
         inkscape:connector-curvature="0" />
    </clipPath>
    <clipPath
       id="id11">
      <path
         d="M 0,0 120,0 120,25 0,25 z"
         id="path1163"
         inkscape:connector-curvature="0" />
    </clipPath>
    <clipPath
       id="id12">
      <path
         d="M 0,0 110,0 110,1 0,1 z"
         id="path1172"
         inkscape:connector-curvature="0" />
    </clipPath>
    <clipPath
       id="id7">
      <path
         d="M 0,0 120,0 120,25 0,25 z"
         id="path1144"
         inkscape:connector-curvature="0" />
    </clipPath>
    <clipPath
       id="id8">
      <path
         d="M 0,0 110,0 110,1 0,1 z"
         id="path1153"
         inkscape:connector-curvature="0" />
    </clipPath>
    <clipPath
       id="id4">
      <path
         inkscape:connector-curvature="0"
         id="path1132"
         d="m 0,0 212.94,0 0,25 L 0,25 z" />
    </clipPath>
    <marker
       style="overflow:visible"
       refX="14"
       refY="7"
       markerUnits="userSpaceOnUse"
       orient="auto"
       id="id12-3"
       markerHeight="14"
       viewBox="0 0 14.0 14.0"
       preserveAspectRatio="xMidYMid meet"
       markerWidth="14"
       overflow="visible">
      <path
         style="fill:none;stroke:#000000;stroke-width:1;stroke-linecap:round;stroke-linejoin:round"
         inkscape:connector-curvature="0"
         d="M 0,0 14,7 0,14"
         id="path61" />
    </marker>
    <marker
       style="overflow:visible"
       refX="14"
       refY="7"
       markerUnits="userSpaceOnUse"
       orient="auto"
       id="id11-5"
       markerHeight="14"
       viewBox="0 0 14.0 14.0"
       preserveAspectRatio="xMidYMid meet"
       markerWidth="14"
       overflow="visible">
      <path
         style="fill:none;stroke:#000000;stroke-width:1;stroke-linecap:round;stroke-linejoin:round"
         inkscape:connector-curvature="0"
         d="M 0,0 14,7 0,14"
         id="path58" />
    </marker>
    <marker
       style="overflow:visible"
       refX="0"
       refY="7"
       markerUnits="userSpaceOnUse"
       orient="auto"
       id="id9"
       markerHeight="14"
       viewBox="0 0 14.0 14.0"
       preserveAspectRatio="xMidYMid meet"
       markerWidth="14"
       overflow="visible">
      <path
         style="fill:none;stroke:#000000;stroke-width:1;stroke-linecap:round;stroke-linejoin:round"
         inkscape:connector-curvature="0"
         d="M 14,0 0,7 14,14"
         id="path52" />
    </marker>
    <marker
       style="overflow:visible"
       refX="14"
       refY="7"
       markerUnits="userSpaceOnUse"
       orient="auto"
       id="id10"
       markerHeight="14"
       viewBox="0 0 14.0 14.0"
       preserveAspectRatio="xMidYMid meet"
       markerWidth="14"
       overflow="visible">
      <path
         style="fill:none;stroke:#000000;stroke-width:1;stroke-linecap:round;stroke-linejoin:round"
         inkscape:connector-curvature="0"
         d="M 0,0 14,7 0,14"
         id="path55" />
    </marker>
    <clipPath
       id="id8-1">
      <path
         inkscape:connector-curvature="0"
         id="path799"
         d="M 0,0 120,0 120,40 0,40 z" />
    </clipPath>
    <clipPath
       id="id5">
      <path
         inkscape:connector-curvature="0"
         id="path787"
         d="M 0,0 120,0 120,40 0,40 z" />
    </clipPath>
    <clipPath
       id="id2">
      <path
         inkscape:connector-curvature="0"
         id="path775"
         d="M 0,0 120,0 120,40 0,40 z" />
    </clipPath>
  </defs>
  <sodipodi:namedview
     id="base"
     pagecolor="#ffffff"
     bordercolor="#666666"
     borderopacity="1.0"
     inkscape:pageopacity="0.0"
     inkscape:pageshadow="2"
     inkscape:zoom="0.35"
     inkscape:cx="375"
     inkscape:cy="520"
     inkscape:document-units="px"
     inkscape:current-layer="layer1"
     showgrid="false"
     inkscape:window-width="513"
     inkscape:window-height="406"
     inkscape:window-x="77"
     inkscape:window-y="171"
     inkscape:window-maximized="0" />
  <metadata
     id="metadata8983">
    <rdf:RDF>
      <cc:Work
         rdf:about="">
        <dc:format>image/svg+xml</dc:format>
        <dc:type
           rdf:resource="http://purl.org/dc/dcmitype/StillImage" />
        <dc:title></dc:title>
      </cc:Work>
    </rdf:RDF>
  </metadata>
  <g
     inkscape:label="Layer 1"
     inkscape:groupmode="layer"
     id="layer1">
    <g
       id="g769"
       transform="translate(195,437.88718)">
      <path
         style="fill:#ffffff;fill-opacity:1;stroke:#000000;stroke-width:1;stroke-linejoin:round"
         inkscape:connector-curvature="0"
         d="M 0,0 120,0 120,40 0,40 0,0 z"
         id="id1" />
      <g
         id="g772">
        <clipPath
           id="clipPath4611">
          <path
             inkscape:connector-curvature="0"
             id="path4613"
             d="M 0,0 120,0 120,40 0,40 z" />
        </clipPath>
        <text
           style="font-size:12px;font-style:normal;font-weight:normal;text-decoration:none;fill:#000000;font-family:'Arial,Arial'"
           id="text777"
           font-weight="normal"
           font-style="normal"
           text-decoration="none"
           clip-path="url(#id2)"
           font-size="12">
          <tspan
             id="tspan779"
             textLength="26.0"
             y="24"
             xml:space="preserve"
             x="47">View</tspan>        </text>
      </g>
    </g>
    <g
       id="g781"
       transform="translate(435,437.88718)">
      <path
         style="fill:#ffffff;fill-opacity:1;stroke:#000000;stroke-width:1;stroke-linejoin:round"
         inkscape:connector-curvature="0"
         d="M 0,0 120,0 120,40 0,40 0,0 z"
         id="id4-1" />
      <g
         id="g784">
        <clipPath
           id="clipPath4620">
          <path
             inkscape:connector-curvature="0"
             id="path4622"
             d="M 0,0 120,0 120,40 0,40 z" />
        </clipPath>
        <text
           style="font-size:12px;font-style:normal;font-weight:normal;text-decoration:none;fill:#000000;font-family:'Arial,Arial'"
           id="text789"
           font-weight="normal"
           font-style="normal"
           text-decoration="none"
           clip-path="url(#id5)"
           font-size="12">
          <tspan
             id="tspan791"
             textLength="54.0"
             y="24"
             xml:space="preserve"
             x="33">Controller</tspan>        </text>
      </g>
    </g>
    <g
       id="g793"
       transform="translate(315,586.83718)">
      <path
         style="fill:#ffffff;fill-opacity:1;stroke:#000000;stroke-width:1;stroke-linejoin:round"
         inkscape:connector-curvature="0"
         d="M 0,0 120,0 120,40 0,40 0,0 z"
         id="id7-3" />
      <g
         id="g796">
        <clipPath
           id="clipPath4629">
          <path
             inkscape:connector-curvature="0"
             id="path4631"
             d="M 0,0 120,0 120,40 0,40 z" />
        </clipPath>
        <text
           style="font-size:12px;font-style:normal;font-weight:normal;text-decoration:none;fill:#000000;font-family:'Arial,Arial'"
           id="text801"
           font-weight="normal"
           font-style="normal"
           text-decoration="none"
           clip-path="url(#id8-1)"
           font-size="12">
          <tspan
             id="tspan803"
             textLength="33.0"
             y="24"
             xml:space="preserve"
             x="43">Model</tspan>        </text>
      </g>
    </g>
    <path
       style="fill:none;stroke:#000000;stroke-width:1;stroke-linejoin:round;stroke-dasharray:3, 3;marker-start:url(#id9);marker-end:url(#id10)"
       inkscape:connector-curvature="0"
       id="path805"
       d="m 315,457.88718 120,0" />
    <path
       style="fill:none;stroke:#000000;stroke-width:1;stroke-linejoin:round;stroke-dasharray:3, 3;marker-end:url(#id11)"
       inkscape:connector-curvature="0"
       id="path807"
       d="m 495,477.88718 0,39.42873 -90,0 0,69.52127" />
    <path
       style="fill:none;stroke:#000000;stroke-width:1;stroke-linejoin:round;stroke-dasharray:3, 3;marker-end:url(#id12)"
       inkscape:connector-curvature="0"
       id="path809"
       d="m 255,477.88718 0,37.53159 90,0 0,71.41841" />
  </g>
</svg>
