<?xml version="1.0" encoding="UTF-8" standalone="no"?>
<!-- Created with Inkscape (http://www.inkscape.org/) -->

<svg
   xmlns:dc="http://purl.org/dc/elements/1.1/"
   xmlns:cc="http://creativecommons.org/ns#"
   xmlns:rdf="http://www.w3.org/1999/02/22-rdf-syntax-ns#"
   xmlns:svg="http://www.w3.org/2000/svg"
   xmlns="http://www.w3.org/2000/svg"
   xmlns:sodipodi="http://sodipodi.sourceforge.net/DTD/sodipodi-0.dtd"
   xmlns:inkscape="http://www.inkscape.org/namespaces/inkscape"
   width="744.09448819"
   height="1052.3622047"
   id="svg8978"
   version="1.1"
   inkscape:version="0.48.3.1 r9886"
   sodipodi:docname="design-patterns-mvc-2.svg">
  <defs
     id="defs8980">
    <clipPath
       id="id87">
      <path
         d="M 0,0 120,0 120,25 0,25 z"
         id="path1524"
         inkscape:connector-curvature="0" />
    </clipPath>
    <clipPath
       id="id88">
      <path
         d="M 0,0 110,0 110,1 0,1 z"
         id="path1533"
         inkscape:connector-curvature="0" />
    </clipPath>
    <clipPath
       id="id83">
      <path
         d="M 0,0 120,0 120,25 0,25 z"
         id="path1505"
         inkscape:connector-curvature="0" />
    </clipPath>
    <clipPath
       id="id84">
      <path
         d="M 0,0 110,0 110,1 0,1 z"
         id="path1514"
         inkscape:connector-curvature="0" />
    </clipPath>
    <clipPath
       id="id79">
      <path
         d="M 0,0 120,0 120,25 0,25 z"
         id="path1486"
         inkscape:connector-curvature="0" />
    </clipPath>
    <clipPath
       id="id80">
      <path
         d="M 0,0 110,0 110,1 0,1 z"
         id="path1495"
         inkscape:connector-curvature="0" />
    </clipPath>
    <clipPath
       id="id75">
      <path
         d="M 0,0 120,0 120,25 0,25 z"
         id="path1467"
         inkscape:connector-curvature="0" />
    </clipPath>
    <clipPath
       id="id76">
      <path
         d="M 0,0 110,0 110,1 0,1 z"
         id="path1476"
         inkscape:connector-curvature="0" />
    </clipPath>
    <clipPath
       id="id71">
      <path
         d="M 0,0 146,0 146,25 0,25 z"
         id="path1448"
         inkscape:connector-curvature="0" />
    </clipPath>
    <clipPath
       id="id72">
      <path
         d="M 0,0 136,0 136,1 0,1 z"
         id="path1457"
         inkscape:connector-curvature="0" />
    </clipPath>
    <clipPath
       id="id67">
      <path
         d="M 0,0 120,0 120,25 0,25 z"
         id="path1429"
         inkscape:connector-curvature="0" />
    </clipPath>
    <clipPath
       id="id68">
      <path
         d="M 0,0 110,0 110,1 0,1 z"
         id="path1438"
         inkscape:connector-curvature="0" />
    </clipPath>
    <clipPath
       id="id63">
      <path
         d="M 0,0 120,0 120,25 0,25 z"
         id="path1410"
         inkscape:connector-curvature="0" />
    </clipPath>
    <clipPath
       id="id64">
      <path
         d="M 0,0 110,0 110,1 0,1 z"
         id="path1419"
         inkscape:connector-curvature="0" />
    </clipPath>
    <clipPath
       id="id59">
      <path
         d="M 0,0 120,0 120,25 0,25 z"
         id="path1391"
         inkscape:connector-curvature="0" />
    </clipPath>
    <clipPath
       id="id60">
      <path
         d="M 0,0 110,0 110,1 0,1 z"
         id="path1400"
         inkscape:connector-curvature="0" />
    </clipPath>
    <clipPath
       id="id55">
      <path
         d="M 0,0 120,0 120,25 0,25 z"
         id="path1372"
         inkscape:connector-curvature="0" />
    </clipPath>
    <clipPath
       id="id56">
      <path
         d="M 0,0 110,0 110,1 0,1 z"
         id="path1381"
         inkscape:connector-curvature="0" />
    </clipPath>
    <clipPath
       id="id51">
      <path
         d="M 0,0 120,0 120,25 0,25 z"
         id="path1353"
         inkscape:connector-curvature="0" />
    </clipPath>
    <clipPath
       id="id52">
      <path
         d="M 0,0 110,0 110,1 0,1 z"
         id="path1362"
         inkscape:connector-curvature="0" />
    </clipPath>
    <clipPath
       id="id47">
      <path
         d="M 0,0 120,0 120,25 0,25 z"
         id="path1334"
         inkscape:connector-curvature="0" />
    </clipPath>
    <clipPath
       id="id48">
      <path
         d="M 0,0 110,0 110,1 0,1 z"
         id="path1343"
         inkscape:connector-curvature="0" />
    </clipPath>
    <clipPath
       id="id43">
      <path
         d="M 0,0 120,0 120,25 0,25 z"
         id="path1315"
         inkscape:connector-curvature="0" />
    </clipPath>
    <clipPath
       id="id44">
      <path
         d="M 0,0 110,0 110,1 0,1 z"
         id="path1324"
         inkscape:connector-curvature="0" />
    </clipPath>
    <clipPath
       id="id39">
      <path
         d="M 0,0 120,0 120,25 0,25 z"
         id="path1296"
         inkscape:connector-curvature="0" />
    </clipPath>
    <clipPath
       id="id40">
      <path
         d="M 0,0 110,0 110,1 0,1 z"
         id="path1305"
         inkscape:connector-curvature="0" />
    </clipPath>
    <clipPath
       id="id35">
      <path
         d="M 0,0 120,0 120,25 0,25 z"
         id="path1277"
         inkscape:connector-curvature="0" />
    </clipPath>
    <clipPath
       id="id36">
      <path
         d="M 0,0 110,0 110,1 0,1 z"
         id="path1286"
         inkscape:connector-curvature="0" />
    </clipPath>
    <clipPath
       id="id31">
      <path
         d="M 0,0 120,0 120,25 0,25 z"
         id="path1258"
         inkscape:connector-curvature="0" />
    </clipPath>
    <clipPath
       id="id32">
      <path
         d="M 0,0 110,0 110,1 0,1 z"
         id="path1267"
         inkscape:connector-curvature="0" />
    </clipPath>
    <clipPath
       id="id27">
      <path
         d="M 0,0 120,0 120,25 0,25 z"
         id="path1239"
         inkscape:connector-curvature="0" />
    </clipPath>
    <clipPath
       id="id28">
      <path
         d="M 0,0 110,0 110,1 0,1 z"
         id="path1248"
         inkscape:connector-curvature="0" />
    </clipPath>
    <clipPath
       id="id23">
      <path
         d="M 0,0 120,0 120,25 0,25 z"
         id="path1220"
         inkscape:connector-curvature="0" />
    </clipPath>
    <clipPath
       id="id24">
      <path
         d="M 0,0 110,0 110,1 0,1 z"
         id="path1229"
         inkscape:connector-curvature="0" />
    </clipPath>
    <clipPath
       id="id19">
      <path
         d="M 0,0 120,0 120,25 0,25 z"
         id="path1201"
         inkscape:connector-curvature="0" />
    </clipPath>
    <clipPath
       id="id20">
      <path
         d="M 0,0 110,0 110,1 0,1 z"
         id="path1210"
         inkscape:connector-curvature="0" />
    </clipPath>
    <clipPath
       id="id15">
      <path
         d="M 0,0 120,0 120,25 0,25 z"
         id="path1182"
         inkscape:connector-curvature="0" />
    </clipPath>
    <clipPath
       id="id16">
      <path
         d="M 0,0 110,0 110,1 0,1 z"
         id="path1191"
         inkscape:connector-curvature="0" />
    </clipPath>
    <clipPath
       id="id11">
      <path
         d="M 0,0 120,0 120,25 0,25 z"
         id="path1163"
         inkscape:connector-curvature="0" />
    </clipPath>
    <clipPath
       id="id12">
      <path
         d="M 0,0 110,0 110,1 0,1 z"
         id="path1172"
         inkscape:connector-curvature="0" />
    </clipPath>
    <clipPath
       id="id7">
      <path
         d="M 0,0 120,0 120,25 0,25 z"
         id="path1144"
         inkscape:connector-curvature="0" />
    </clipPath>
    <clipPath
       id="id8">
      <path
         d="M 0,0 110,0 110,1 0,1 z"
         id="path1153"
         inkscape:connector-curvature="0" />
    </clipPath>
    <clipPath
       id="id4">
      <path
         inkscape:connector-curvature="0"
         id="path1132"
         d="m 0,0 212.94,0 0,25 L 0,25 z" />
    </clipPath>
    <marker
       style="overflow:visible"
       refX="14"
       refY="7"
       markerUnits="userSpaceOnUse"
       orient="auto"
       id="id12-3"
       markerHeight="14"
       viewBox="0 0 14.0 14.0"
       preserveAspectRatio="xMidYMid meet"
       markerWidth="14"
       overflow="visible">
      <path
         style="fill:none;stroke:#000000;stroke-width:1;stroke-linecap:round;stroke-linejoin:round"
         inkscape:connector-curvature="0"
         d="M 0,0 14,7 0,14"
         id="path61" />
    </marker>
    <marker
       style="overflow:visible"
       refX="14"
       refY="7"
       markerUnits="userSpaceOnUse"
       orient="auto"
       id="id11-5"
       markerHeight="14"
       viewBox="0 0 14.0 14.0"
       preserveAspectRatio="xMidYMid meet"
       markerWidth="14"
       overflow="visible">
      <path
         style="fill:none;stroke:#000000;stroke-width:1;stroke-linecap:round;stroke-linejoin:round"
         inkscape:connector-curvature="0"
         d="M 0,0 14,7 0,14"
         id="path58" />
    </marker>
    <marker
       style="overflow:visible"
       refX="0"
       refY="7"
       markerUnits="userSpaceOnUse"
       orient="auto"
       id="id9"
       markerHeight="14"
       viewBox="0 0 14.0 14.0"
       preserveAspectRatio="xMidYMid meet"
       markerWidth="14"
       overflow="visible">
      <path
         style="fill:none;stroke:#000000;stroke-width:1;stroke-linecap:round;stroke-linejoin:round"
         inkscape:connector-curvature="0"
         d="M 14,0 0,7 14,14"
         id="path52" />
    </marker>
    <marker
       style="overflow:visible"
       refX="14"
       refY="7"
       markerUnits="userSpaceOnUse"
       orient="auto"
       id="id10"
       markerHeight="14"
       viewBox="0 0 14.0 14.0"
       preserveAspectRatio="xMidYMid meet"
       markerWidth="14"
       overflow="visible">
      <path
         style="fill:none;stroke:#000000;stroke-width:1;stroke-linecap:round;stroke-linejoin:round"
         inkscape:connector-curvature="0"
         d="M 0,0 14,7 0,14"
         id="path55" />
    </marker>
    <clipPath
       id="id8-1">
      <path
         inkscape:connector-curvature="0"
         id="path799"
         d="M 0,0 120,0 120,40 0,40 z" />
    </clipPath>
    <clipPath
       id="id5">
      <path
         inkscape:connector-curvature="0"
         id="path787"
         d="M 0,0 120,0 120,40 0,40 z" />
    </clipPath>
    <clipPath
       id="id2">
      <path
         inkscape:connector-curvature="0"
         id="path775"
         d="M 0,0 120,0 120,40 0,40 z" />
    </clipPath>
    <clipPath
       id="id42">
      <path
         inkscape:connector-curvature="0"
         id="path961"
         d="M 0,0 19,0 19,25 0,25 z" />
    </clipPath>
    <clipPath
       id="id41">
      <path
         inkscape:connector-curvature="0"
         id="path952"
         d="M 0,0 19,0 19,25 0,25 z" />
    </clipPath>
    <clipPath
       id="id40-0">
      <path
         inkscape:connector-curvature="0"
         id="path943"
         d="M 0,0 19,0 19,25 0,25 z" />
    </clipPath>
    <clipPath
       id="id39-1">
      <path
         inkscape:connector-curvature="0"
         id="path934"
         d="M 0,0 19,0 19,25 0,25 z" />
    </clipPath>
    <marker
       style="overflow:visible"
       refX="14"
       refY="7"
       markerUnits="userSpaceOnUse"
       orient="auto"
       id="id38"
       markerHeight="14"
       viewBox="0 0 14.0 14.0"
       preserveAspectRatio="xMidYMid meet"
       markerWidth="14"
       overflow="visible">
      <path
         style="fill:#ffffff;stroke:#000000;stroke-width:1;stroke-linecap:round;stroke-linejoin:round"
         inkscape:connector-curvature="0"
         d="M 0,0 14,7 0,14 z"
         id="path187" />
    </marker>
    <marker
       style="overflow:visible"
       refX="14"
       refY="7"
       markerUnits="userSpaceOnUse"
       orient="auto"
       id="id37"
       markerHeight="14"
       viewBox="0 0 14.0 14.0"
       preserveAspectRatio="xMidYMid meet"
       markerWidth="14"
       overflow="visible">
      <path
         style="fill:#ffffff;stroke:#000000;stroke-width:1;stroke-linecap:round;stroke-linejoin:round"
         inkscape:connector-curvature="0"
         d="M 0,0 14,7 0,14 z"
         id="path184" />
    </marker>
    <clipPath
       id="id35-2">
      <path
         inkscape:connector-curvature="0"
         id="path896"
         d="M 0,0 120,0 120,25 0,25 z" />
    </clipPath>
    <clipPath
       id="id36-5">
      <path
         inkscape:connector-curvature="0"
         id="path905"
         d="M 0,0 110,0 110,96 0,96 z" />
    </clipPath>
    <clipPath
       id="id29">
      <path
         inkscape:connector-curvature="0"
         id="path870"
         d="M 0,0 120,0 120,25 0,25 z" />
    </clipPath>
    <clipPath
       id="id30">
      <path
         inkscape:connector-curvature="0"
         id="path879"
         d="M 0,0 110,0 110,66 0,66 z" />
    </clipPath>
    <clipPath
       id="id23-8">
      <path
         inkscape:connector-curvature="0"
         id="path840"
         d="M 0,0 120,0 120,25 0,25 z" />
    </clipPath>
    <clipPath
       id="id24-3">
      <path
         inkscape:connector-curvature="0"
         id="path849"
         d="M 0,0 110,0 110,66 0,66 z" />
    </clipPath>
    <clipPath
       id="id17">
      <path
         inkscape:connector-curvature="0"
         id="path818"
         d="M 0,0 120,0 120,25 0,25 z" />
    </clipPath>
    <clipPath
       id="id18">
      <path
         inkscape:connector-curvature="0"
         id="path827"
         d="M 0,0 110,0 110,45 0,45 z" />
    </clipPath>
  </defs>
  <sodipodi:namedview
     id="base"
     pagecolor="#ffffff"
     bordercolor="#666666"
     borderopacity="1.0"
     inkscape:pageopacity="0.0"
     inkscape:pageshadow="2"
     inkscape:zoom="1.4"
     inkscape:cx="408.36675"
     inkscape:cy="506.91259"
     inkscape:document-units="px"
     inkscape:current-layer="layer1"
     showgrid="false"
     inkscape:window-width="1281"
     inkscape:window-height="643"
     inkscape:window-x="77"
     inkscape:window-y="171"
     inkscape:window-maximized="0" />
  <metadata
     id="metadata8983">
    <rdf:RDF>
      <cc:Work
         rdf:about="">
        <dc:format>image/svg+xml</dc:format>
        <dc:type
           rdf:resource="http://purl.org/dc/dcmitype/StillImage" />
        <dc:title />
      </cc:Work>
    </rdf:RDF>
  </metadata>
  <g
     inkscape:label="Layer 1"
     inkscape:groupmode="layer"
     id="layer1">
    <g
       id="g811"
       transform="translate(397.5,407.16218)">
      <path
         style="fill:#ffffff;fill-opacity:1;stroke:#000000;stroke-width:1;stroke-linejoin:round"
         inkscape:connector-curvature="0"
         d="M 0,0 120,0 120,25 0,25 0,0 z"
         id="id14" />
      <path
         style="fill:#ffffff;fill-opacity:1;stroke:#000000;stroke-width:1;stroke-linejoin:round"
         inkscape:connector-curvature="0"
         d="m 0,25 120,0 0,31 -120,0 z"
         id="id16-8"
         sodipodi:nodetypes="ccccc" />
      <g
         id="g815">
        <clipPath
           id="clipPath4680">
          <path
             inkscape:connector-curvature="0"
             id="path4682"
             d="M 0,0 120,0 120,25 0,25 z" />
        </clipPath>
        <text
           style="font-size:12px;font-style:normal;font-weight:bold;text-decoration:none;fill:#000000;font-family:'Arial,Arial'"
           id="text820"
           font-weight="bold"
           font-style="normal"
           text-decoration="none"
           clip-path="url(#id17)"
           font-size="12">
          <tspan
             id="tspan822"
             textLength="54.0"
             y="16.5"
             xml:space="preserve"
             x="33">Observer</tspan>        </text>
      </g>
      <g
         id="g824"
         transform="translate(5,30)">
        <clipPath
           id="clipPath4687">
          <path
             inkscape:connector-curvature="0"
             id="path4689"
             d="M 0,0 110,0 110,45 0,45 z" />
        </clipPath>
        <text
           style="font-size:10px;font-style:normal;font-weight:normal;text-decoration:none;fill:#000000;font-family:'Arial,Arial'"
           id="text829"
           font-weight="normal"
           font-style="normal"
           text-decoration="none"
           clip-path="url(#id18)"
           font-size="10">
          <tspan
             id="tspan831"
             textLength="39.0"
             y="12"
             xml:space="preserve"
             x="2">update()</tspan>        </text>
      </g>
    </g>
    <g
       id="g833"
       transform="translate(308.5,504.56218)">
      <path
         style="fill:#ffffff;fill-opacity:1;stroke:#000000;stroke-width:1;stroke-linejoin:round"
         inkscape:connector-curvature="0"
         d="M 0,0 120,0 120,25 0,25 0,0 z"
         id="id20-3" />
      <path
         style="fill:#ffffff;fill-opacity:1;stroke:#000000;stroke-width:1;stroke-linejoin:round"
         inkscape:connector-curvature="0"
         d="m 0,25 120,0 0,76 -120,0 0,-76 z"
         id="id22" />
      <g
         id="g837">
        <clipPath
           id="clipPath4697">
          <path
             inkscape:connector-curvature="0"
             id="path4699"
             d="M 0,0 120,0 120,25 0,25 z" />
        </clipPath>
        <text
           style="font-size:12px;font-style:normal;font-weight:bold;text-decoration:none;fill:#000000;font-family:'Arial,Arial'"
           id="text842"
           font-weight="bold"
           font-style="normal"
           text-decoration="none"
           clip-path="url(#id23-8)"
           font-size="12">
          <tspan
             id="tspan844"
             textLength="27.0"
             y="16.5"
             xml:space="preserve"
             x="46">View</tspan>        </text>
      </g>
      <g
         id="g846"
         transform="translate(5,30)">
        <clipPath
           id="clipPath4704">
          <path
             inkscape:connector-curvature="0"
             id="path4706"
             d="M 0,0 110,0 110,66 0,66 z" />
        </clipPath>
        <text
           style="font-size:10px;font-style:normal;font-weight:normal;text-decoration:none;fill:#000000;font-family:'Arial,Arial'"
           id="text851"
           font-weight="normal"
           font-style="normal"
           text-decoration="none"
           clip-path="url(#id24-3)"
           font-size="10">
          <tspan
             id="tspan853"
             textLength="66.0"
             y="12"
             xml:space="preserve"
             x="2">init(m: Model)</tspan>          <tspan
             id="tspan855"
             textLength="77.0"
             y="25"
             xml:space="preserve"
             x="2">makeController()</tspan>          <tspan
             id="tspan857"
             textLength="44.0"
             y="38"
             xml:space="preserve"
             x="2">activate()</tspan>          <tspan
             id="tspan859"
             textLength="39.0"
             y="51"
             xml:space="preserve"
             x="2">display()</tspan>          <tspan
             id="tspan861"
             textLength="39.0"
             y="64"
             xml:space="preserve"
             x="2">update()</tspan>        </text>
      </g>
    </g>
    <g
       id="g863"
       transform="translate(488.5,504.56218)">
      <path
         style="fill:#ffffff;fill-opacity:1;stroke:#000000;stroke-width:1;stroke-linejoin:round"
         inkscape:connector-curvature="0"
         d="M 0,0 120,0 120,25 0,25 0,0 z"
         id="id26" />
      <path
         style="fill:#ffffff;fill-opacity:1;stroke:#000000;stroke-width:1;stroke-linejoin:round"
         inkscape:connector-curvature="0"
         d="m 0,25 120,0 0,76 -120,0 0,-76 z"
         id="id28-3" />
      <g
         id="g867">
        <clipPath
           id="clipPath4718">
          <path
             inkscape:connector-curvature="0"
             id="path4720"
             d="M 0,0 120,0 120,25 0,25 z" />
        </clipPath>
        <text
           style="font-size:12px;font-style:normal;font-weight:bold;text-decoration:none;fill:#000000;font-family:'Arial,Arial'"
           id="text872"
           font-weight="bold"
           font-style="normal"
           text-decoration="none"
           clip-path="url(#id29)"
           font-size="12">
          <tspan
             id="tspan874"
             textLength="56.0"
             y="16.5"
             xml:space="preserve"
             x="32">Controller</tspan>        </text>
      </g>
      <g
         id="g876"
         transform="translate(5,30)">
        <clipPath
           id="clipPath4725">
          <path
             inkscape:connector-curvature="0"
             id="path4727"
             d="M 0,0 110,0 110,66 0,66 z" />
        </clipPath>
        <text
           style="font-size:10px;font-style:normal;font-weight:normal;text-decoration:none;fill:#000000;font-family:'Arial,Arial'"
           id="text881"
           font-weight="normal"
           font-style="normal"
           text-decoration="none"
           clip-path="url(#id30)"
           font-size="10">
          <tspan
             id="tspan883"
             textLength="103.0"
             y="12"
             xml:space="preserve"
             x="2">init(m: Model, v:View)</tspan>          <tspan
             id="tspan885"
             textLength="66.0"
             y="25"
             xml:space="preserve"
             x="2">handleEvent()</tspan>          <tspan
             id="tspan887"
             textLength="39.0"
             y="38"
             xml:space="preserve"
             x="2">update()</tspan>        </text>
      </g>
    </g>
    <g
       id="g889"
       transform="translate(141.5,414.16218)">
      <path
         style="fill:#ffffff;fill-opacity:1;stroke:#000000;stroke-width:1;stroke-linejoin:round"
         inkscape:connector-curvature="0"
         d="M 0,0 120,0 120,25 0,25 0,0 z"
         id="id32-2" />
      <path
         style="fill:#ffffff;fill-opacity:1;stroke:#000000;stroke-width:1;stroke-linejoin:round"
         inkscape:connector-curvature="0"
         d="m 0,25 120,0 0,106 L 0,131 0,25 z"
         id="id34" />
      <g
         id="g893">
        <clipPath
           id="clipPath4737">
          <path
             inkscape:connector-curvature="0"
             id="path4739"
             d="M 0,0 120,0 120,25 0,25 z" />
        </clipPath>
        <text
           style="font-size:12px;font-style:normal;font-weight:bold;text-decoration:none;fill:#000000;font-family:'Arial,Arial'"
           id="text898"
           font-weight="bold"
           font-style="normal"
           text-decoration="none"
           clip-path="url(#id35-2)"
           font-size="12">
          <tspan
             id="tspan900"
             textLength="34.0"
             y="16.5"
             xml:space="preserve"
             x="43">Model</tspan>        </text>
      </g>
      <g
         id="g902"
         transform="translate(5,30)">
        <clipPath
           id="clipPath4744">
          <path
             inkscape:connector-curvature="0"
             id="path4746"
             d="M 0,0 110,0 110,96 0,96 z" />
        </clipPath>
        <text
           style="font-size:10px;font-style:normal;font-weight:normal;text-decoration:none;fill:#000000;font-family:'Arial,Arial'"
           id="text907"
           font-weight="normal"
           font-style="normal"
           text-decoration="none"
           clip-path="url(#id36-5)"
           font-size="10">
          <tspan
             id="tspan909"
             textLength="21.0"
             y="12"
             xml:space="preserve"
             x="2">data</tspan>          <tspan
             id="tspan911"
             textLength="6.0"
             y="25"
             xml:space="preserve"
             x="2">--</tspan>          <tspan
             id="tspan913"
             textLength="92.0"
             y="38"
             xml:space="preserve"
             x="2">attach(ob:Observer)</tspan>          <tspan
             id="tspan915"
             textLength="95.0"
             y="51"
             xml:space="preserve"
             x="2">detach(ob:Observer)</tspan>          <tspan
             id="tspan917"
             textLength="32.0"
             y="64"
             xml:space="preserve"
             x="2">notify()</tspan>          <tspan
             id="tspan919"
             textLength="43.0"
             y="77"
             xml:space="preserve"
             x="2">getData()</tspan>          <tspan
             id="tspan921"
             textLength="39.0"
             y="90"
             xml:space="preserve"
             x="2">service()</tspan>        </text>
      </g>
    </g>
    <path
       style="fill:none;stroke:#000000;stroke-width:1;stroke-linejoin:round"
       inkscape:connector-curvature="0"
       id="path923"
       d="m 261.5,446.91218 136,0.25" />
    <path
       style="fill:none;stroke:#000000;stroke-width:1;stroke-linejoin:round;marker-end:url(#id37)"
       inkscape:connector-curvature="0"
       id="path925"
       d="m 368.5,504.56218 0,-14.7 89,0 0,-26.7"
       sodipodi:nodetypes="cccc" />
    <path
       style="fill:none;stroke:#000000;stroke-width:1;stroke-linejoin:round;marker-end:url(#id38)"
       inkscape:connector-curvature="0"
       id="path927"
       d="m 548.5,504.56218 0,-14.7 -91,0 0,-26.7"
       sodipodi:nodetypes="cccc" />
    <path
       style="fill:none;stroke:#000000;stroke-width:1;stroke-linejoin:round"
       inkscape:connector-curvature="0"
       id="path929"
       d="m 428.5,555.06218 60,0" />
    <g
       id="g931"
       transform="translate(268.5,430.16218)">
      <clipPath
         id="clipPath4761">
        <path
           inkscape:connector-curvature="0"
           id="path4763"
           d="M 0,0 19,0 19,25 0,25 z" />
      </clipPath>
      <text
         style="font-size:12px;font-style:normal;font-weight:normal;text-decoration:none;fill:#000000;font-family:'Arial,Arial'"
         id="text936"
         font-weight="normal"
         font-style="normal"
         text-decoration="none"
         clip-path="url(#id39-1)"
         font-size="12">
        <tspan
           id="tspan938"
           textLength="7.0"
           y="13"
           xml:space="preserve"
           x="2">1</tspan>      </text>
    </g>
    <g
       id="g940"
       transform="translate(433.5,536.16218)">
      <clipPath
         id="clipPath4768">
        <path
           inkscape:connector-curvature="0"
           id="path4770"
           d="M 0,0 19,0 19,25 0,25 z" />
      </clipPath>
      <text
         style="font-size:12px;font-style:normal;font-weight:normal;text-decoration:none;fill:#000000;font-family:'Arial,Arial'"
         id="text945"
         font-weight="normal"
         font-style="normal"
         text-decoration="none"
         clip-path="url(#id40-0)"
         font-size="12">
        <tspan
           id="tspan947"
           textLength="7.0"
           y="13"
           xml:space="preserve"
           x="2">1</tspan>      </text>
    </g>
    <g
       id="g949"
       transform="translate(469.5,536.16218)">
      <clipPath
         id="clipPath4775">
        <path
           inkscape:connector-curvature="0"
           id="path4777"
           d="M 0,0 19,0 19,25 0,25 z" />
      </clipPath>
      <text
         style="font-size:12px;font-style:normal;font-weight:normal;text-decoration:none;fill:#000000;font-family:'Arial,Arial'"
         id="text954"
         font-weight="normal"
         font-style="normal"
         text-decoration="none"
         clip-path="url(#id41)"
         font-size="12">
        <tspan
           id="tspan956"
           textLength="7.0"
           y="13"
           xml:space="preserve"
           x="2">1</tspan>      </text>
    </g>
    <g
       id="g958"
       transform="translate(378.5,430.16218)">
      <clipPath
         id="clipPath4782">
        <path
           inkscape:connector-curvature="0"
           id="path4784"
           d="M 0,0 19,0 19,25 0,25 z" />
      </clipPath>
      <text
         style="font-size:12px;font-style:normal;font-weight:normal;text-decoration:none;fill:#000000;font-family:'Arial,Arial'"
         id="text963"
         font-weight="normal"
         font-style="normal"
         text-decoration="none"
         clip-path="url(#id42)"
         font-size="12">
        <tspan
           id="tspan965"
           textLength="5.0"
           y="13"
           xml:space="preserve"
           x="2">*</tspan>      </text>
    </g>
  </g>
</svg>
