<?xml version="1.0" encoding="utf-8"?>
<svg contentScriptType="text/ecmascript" xmlns:xlink="http://www.w3.org/1999/xlink" zoomAndPan="magnify" contentStyleType="text/css" viewBox="173.0 -7.849999999999994 683.0 345.70000000000005" xmlns:cacoo="http://cacoo.com/" preserveAspectRatio="xMidYMin meet" xmlns="http://www.w3.org/2000/svg" version="1.1"><defs><filter xlink:actuate="onLoad" xlink:type="simple" id="id0" xlink:show="other" filterUnits="userSpaceOnUse" xmlns:xlink="http://www.w3.org/1999/xlink"><feGaussianBlur stdDeviation="3.0" result="blur" in="SourceAlpha"/><feOffset dx="4.0" dy="4.0" result="offsetBlur" in="blur"/><feComponentTransfer result="componentOffsetBlur" in="offsetBlur"><feFuncR type="linear" intercept="0.0" slope="0"/><feFuncG type="linear" intercept="0.0" slope="0"/><feFuncB type="linear" intercept="0.0" slope="0"/><feFuncA type="linear" intercept="0" slope="0.4"/></feComponentTransfer></filter><filter xlink:actuate="onLoad" xlink:type="simple" id="id2" xlink:show="other" filterUnits="userSpaceOnUse" xmlns:xlink="http://www.w3.org/1999/xlink"><feGaussianBlur stdDeviation="3.0" result="blur" in="SourceAlpha"/><feOffset dx="4.0" dy="4.0" result="offsetBlur" in="blur"/><feComponentTransfer result="componentOffsetBlur" in="offsetBlur"><feFuncR type="linear" intercept="0.0" slope="0"/><feFuncG type="linear" intercept="0.0" slope="0"/><feFuncB type="linear" intercept="0.0" slope="0"/><feFuncA type="linear" intercept="0" slope="0.4"/></feComponentTransfer></filter><filter xlink:actuate="onLoad" xlink:type="simple" id="id6" xlink:show="other" filterUnits="userSpaceOnUse" xmlns:xlink="http://www.w3.org/1999/xlink"><feGaussianBlur stdDeviation="3.0" result="blur" in="SourceAlpha"/><feOffset dx="4.0" dy="4.0" result="offsetBlur" in="blur"/><feComponentTransfer result="componentOffsetBlur" in="offsetBlur"><feFuncR type="linear" intercept="0.0" slope="0"/><feFuncG type="linear" intercept="0.0" slope="0"/><feFuncB type="linear" intercept="0.0" slope="0"/><feFuncA type="linear" intercept="0" slope="0.4"/></feComponentTransfer></filter><filter xlink:actuate="onLoad" xlink:type="simple" id="id8" xlink:show="other" filterUnits="userSpaceOnUse" xmlns:xlink="http://www.w3.org/1999/xlink"><feGaussianBlur stdDeviation="3.0" result="blur" in="SourceAlpha"/><feOffset dx="4.0" dy="4.0" result="offsetBlur" in="blur"/><feComponentTransfer result="componentOffsetBlur" in="offsetBlur"><feFuncR type="linear" intercept="0.0" slope="0"/><feFuncG type="linear" intercept="0.0" slope="0"/><feFuncB type="linear" intercept="0.0" slope="0"/><feFuncA type="linear" intercept="0" slope="0.4"/></feComponentTransfer></filter><filter xlink:actuate="onLoad" xlink:type="simple" id="id10" xlink:show="other" filterUnits="userSpaceOnUse" xmlns:xlink="http://www.w3.org/1999/xlink"><feGaussianBlur stdDeviation="3.0" result="blur" in="SourceAlpha"/><feOffset dx="4.0" dy="4.0" result="offsetBlur" in="blur"/><feComponentTransfer result="componentOffsetBlur" in="offsetBlur"><feFuncR type="linear" intercept="0.0" slope="0"/><feFuncG type="linear" intercept="0.0" slope="0"/><feFuncB type="linear" intercept="0.0" slope="0"/><feFuncA type="linear" intercept="0" slope="0.4"/></feComponentTransfer></filter><filter xlink:actuate="onLoad" xlink:type="simple" id="id12" xlink:show="other" filterUnits="userSpaceOnUse" xmlns:xlink="http://www.w3.org/1999/xlink"><feGaussianBlur stdDeviation="3.0" result="blur" in="SourceAlpha"/><feOffset dx="4.0" dy="4.0" result="offsetBlur" in="blur"/><feComponentTransfer result="componentOffsetBlur" in="offsetBlur"><feFuncR type="linear" intercept="0.0" slope="0"/><feFuncG type="linear" intercept="0.0" slope="0"/><feFuncB type="linear" intercept="0.0" slope="0"/><feFuncA type="linear" intercept="0" slope="0.4"/></feComponentTransfer></filter><filter xlink:actuate="onLoad" xlink:type="simple" id="id14" xlink:show="other" filterUnits="userSpaceOnUse" xmlns:xlink="http://www.w3.org/1999/xlink"><feGaussianBlur stdDeviation="3.0" result="blur" in="SourceAlpha"/><feOffset dx="4.0" dy="4.0" result="offsetBlur" in="blur"/><feComponentTransfer result="componentOffsetBlur" in="offsetBlur"><feFuncR type="linear" intercept="0.0" slope="0"/><feFuncG type="linear" intercept="0.0" slope="0"/><feFuncB type="linear" intercept="0.0" slope="0"/><feFuncA type="linear" intercept="0" slope="0.4"/></feComponentTransfer></filter><filter xlink:actuate="onLoad" xlink:type="simple" id="id17" xlink:show="other" filterUnits="userSpaceOnUse" xmlns:xlink="http://www.w3.org/1999/xlink"><feGaussianBlur stdDeviation="3.0" result="blur" in="SourceAlpha"/><feOffset dx="4.0" dy="4.0" result="offsetBlur" in="blur"/><feComponentTransfer result="componentOffsetBlur" in="offsetBlur"><feFuncR type="linear" intercept="0.0" slope="0"/><feFuncG type="linear" intercept="0.0" slope="0"/><feFuncB type="linear" intercept="0.0" slope="0"/><feFuncA type="linear" intercept="0" slope="0.4"/></feComponentTransfer></filter><filter xlink:actuate="onLoad" xlink:type="simple" id="id20" xlink:show="other" filterUnits="userSpaceOnUse" xmlns:xlink="http://www.w3.org/1999/xlink"><feGaussianBlur stdDeviation="3.0" result="blur" in="SourceAlpha"/><feOffset dx="4.0" dy="4.0" result="offsetBlur" in="blur"/><feComponentTransfer result="componentOffsetBlur" in="offsetBlur"><feFuncR type="linear" intercept="0.0" slope="0"/><feFuncG type="linear" intercept="0.0" slope="0"/><feFuncB type="linear" intercept="0.0" slope="0"/><feFuncA type="linear" intercept="0" slope="0.4"/></feComponentTransfer></filter><filter xlink:actuate="onLoad" xlink:type="simple" id="id23" xlink:show="other" filterUnits="userSpaceOnUse" xmlns:xlink="http://www.w3.org/1999/xlink"><feGaussianBlur stdDeviation="3.0" result="blur" in="SourceAlpha"/><feOffset dx="4.0" dy="4.0" result="offsetBlur" in="blur"/><feComponentTransfer result="componentOffsetBlur" in="offsetBlur"><feFuncR type="linear" intercept="0.0" slope="0"/><feFuncG type="linear" intercept="0.0" slope="0"/><feFuncB type="linear" intercept="0.0" slope="0"/><feFuncA type="linear" intercept="0" slope="0.4"/></feComponentTransfer></filter><filter xlink:actuate="onLoad" xlink:type="simple" id="id26" xlink:show="other" filterUnits="userSpaceOnUse" xmlns:xlink="http://www.w3.org/1999/xlink"><feGaussianBlur stdDeviation="3.0" result="blur" in="SourceAlpha"/><feOffset dx="4.0" dy="4.0" result="offsetBlur" in="blur"/><feComponentTransfer result="componentOffsetBlur" in="offsetBlur"><feFuncR type="linear" intercept="0.0" slope="0"/><feFuncG type="linear" intercept="0.0" slope="0"/><feFuncB type="linear" intercept="0.0" slope="0"/><feFuncA type="linear" intercept="0" slope="0.4"/></feComponentTransfer></filter><filter xlink:actuate="onLoad" xlink:type="simple" id="id29" xlink:show="other" filterUnits="userSpaceOnUse" xmlns:xlink="http://www.w3.org/1999/xlink"><feGaussianBlur stdDeviation="3.0" result="blur" in="SourceAlpha"/><feOffset dx="4.0" dy="4.0" result="offsetBlur" in="blur"/><feComponentTransfer result="componentOffsetBlur" in="offsetBlur"><feFuncR type="linear" intercept="0.0" slope="0"/><feFuncG type="linear" intercept="0.0" slope="0"/><feFuncB type="linear" intercept="0.0" slope="0"/><feFuncA type="linear" intercept="0" slope="0.4"/></feComponentTransfer></filter><filter xlink:actuate="onLoad" xlink:type="simple" id="id31" xlink:show="other" filterUnits="userSpaceOnUse" xmlns:xlink="http://www.w3.org/1999/xlink"><feGaussianBlur stdDeviation="3.0" result="blur" in="SourceAlpha"/><feOffset dx="4.0" dy="4.0" result="offsetBlur" in="blur"/><feComponentTransfer result="componentOffsetBlur" in="offsetBlur"><feFuncR type="linear" intercept="0.0" slope="0"/><feFuncG type="linear" intercept="0.0" slope="0"/><feFuncB type="linear" intercept="0.0" slope="0"/><feFuncA type="linear" intercept="0" slope="0.4"/></feComponentTransfer></filter><filter xlink:actuate="onLoad" xlink:type="simple" id="id33" xlink:show="other" filterUnits="userSpaceOnUse" xmlns:xlink="http://www.w3.org/1999/xlink"><feGaussianBlur stdDeviation="3.0" result="blur" in="SourceAlpha"/><feOffset dx="4.0" dy="4.0" result="offsetBlur" in="blur"/><feComponentTransfer result="componentOffsetBlur" in="offsetBlur"><feFuncR type="linear" intercept="0.0" slope="0"/><feFuncG type="linear" intercept="0.0" slope="0"/><feFuncB type="linear" intercept="0.0" slope="0"/><feFuncA type="linear" intercept="0" slope="0.4"/></feComponentTransfer></filter><filter xlink:actuate="onLoad" xlink:type="simple" id="id35" xlink:show="other" filterUnits="userSpaceOnUse" xmlns:xlink="http://www.w3.org/1999/xlink"><feGaussianBlur stdDeviation="3.0" result="blur" in="SourceAlpha"/><feOffset dx="4.0" dy="4.0" result="offsetBlur" in="blur"/><feComponentTransfer result="componentOffsetBlur" in="offsetBlur"><feFuncR type="linear" intercept="0.0" slope="0"/><feFuncG type="linear" intercept="0.0" slope="0"/><feFuncB type="linear" intercept="0.0" slope="0"/><feFuncA type="linear" intercept="0" slope="0.4"/></feComponentTransfer></filter><filter xlink:actuate="onLoad" xlink:type="simple" id="id37" xlink:show="other" filterUnits="userSpaceOnUse" xmlns:xlink="http://www.w3.org/1999/xlink"><feGaussianBlur stdDeviation="3.0" result="blur" in="SourceAlpha"/><feOffset dx="4.0" dy="4.0" result="offsetBlur" in="blur"/><feComponentTransfer result="componentOffsetBlur" in="offsetBlur"><feFuncR type="linear" intercept="0.0" slope="0"/><feFuncG type="linear" intercept="0.0" slope="0"/><feFuncB type="linear" intercept="0.0" slope="0"/><feFuncA type="linear" intercept="0" slope="0.4"/></feComponentTransfer></filter><filter xlink:actuate="onLoad" xlink:type="simple" id="id40" xlink:show="other" filterUnits="userSpaceOnUse" xmlns:xlink="http://www.w3.org/1999/xlink"><feGaussianBlur stdDeviation="3.0" result="blur" in="SourceAlpha"/><feOffset dx="4.0" dy="4.0" result="offsetBlur" in="blur"/><feComponentTransfer result="componentOffsetBlur" in="offsetBlur"><feFuncR type="linear" intercept="0.0" slope="0"/><feFuncG type="linear" intercept="0.0" slope="0"/><feFuncB type="linear" intercept="0.0" slope="0"/><feFuncA type="linear" intercept="0" slope="0.4"/></feComponentTransfer></filter></defs><g><g transform="translate(303.0 7.150000000000006)"><use xlink:href="#id1" xlink:actuate="onLoad" xlink:type="simple" xlink:show="embed" xmlns:xlink="http://www.w3.org/1999/xlink" filter="url(#id0)"/><use xlink:href="#id3" xlink:actuate="onLoad" xlink:type="simple" xlink:show="embed" xmlns:xlink="http://www.w3.org/1999/xlink" filter="url(#id2)"/></g><g transform="translate(188.0 130.05)"><use xlink:href="#id7" xlink:actuate="onLoad" xlink:type="simple" xlink:show="embed" xmlns:xlink="http://www.w3.org/1999/xlink" filter="url(#id6)"/><use xlink:href="#id9" xlink:actuate="onLoad" xlink:type="simple" xlink:show="embed" xmlns:xlink="http://www.w3.org/1999/xlink" filter="url(#id8)"/><use xlink:href="#id11" xlink:actuate="onLoad" xlink:type="simple" xlink:show="embed" xmlns:xlink="http://www.w3.org/1999/xlink" filter="url(#id10)"/><use xlink:href="#id13" xlink:actuate="onLoad" xlink:type="simple" xlink:show="embed" xmlns:xlink="http://www.w3.org/1999/xlink" filter="url(#id12)"/><use xlink:href="#id15" xlink:actuate="onLoad" xlink:type="simple" xlink:show="embed" xmlns:xlink="http://www.w3.org/1999/xlink" filter="url(#id14)"/></g><g transform="translate(338.0 135.05)"><use xlink:href="#id18" xlink:actuate="onLoad" xlink:type="simple" xlink:show="embed" xmlns:xlink="http://www.w3.org/1999/xlink" filter="url(#id17)"/></g><g transform="translate(338.0 44.5)"><use xlink:href="#id21" xlink:actuate="onLoad" xlink:type="simple" xlink:show="embed" xmlns:xlink="http://www.w3.org/1999/xlink" filter="url(#id20)"/></g><g transform="translate(530.0 44.5)"><use xlink:href="#id24" xlink:actuate="onLoad" xlink:type="simple" xlink:show="embed" xmlns:xlink="http://www.w3.org/1999/xlink" filter="url(#id23)"/></g><g transform="translate(338.0 228.0)"><use xlink:href="#id27" xlink:actuate="onLoad" xlink:type="simple" xlink:show="embed" xmlns:xlink="http://www.w3.org/1999/xlink" filter="url(#id26)"/></g><g transform="translate(741.0 79.5)"><use xlink:href="#id30" xlink:actuate="onLoad" xlink:type="simple" xlink:show="embed" xmlns:xlink="http://www.w3.org/1999/xlink" filter="url(#id29)"/><use xlink:href="#id32" xlink:actuate="onLoad" xlink:type="simple" xlink:show="embed" xmlns:xlink="http://www.w3.org/1999/xlink" filter="url(#id31)"/><use xlink:href="#id34" xlink:actuate="onLoad" xlink:type="simple" xlink:show="embed" xmlns:xlink="http://www.w3.org/1999/xlink" filter="url(#id33)"/><use xlink:href="#id36" xlink:actuate="onLoad" xlink:type="simple" xlink:show="embed" xmlns:xlink="http://www.w3.org/1999/xlink" filter="url(#id35)"/><use xlink:href="#id38" xlink:actuate="onLoad" xlink:type="simple" xlink:show="embed" xmlns:xlink="http://www.w3.org/1999/xlink" filter="url(#id37)"/></g><g transform="translate(530.0 135.05)"><use xlink:href="#id41" xlink:actuate="onLoad" xlink:type="simple" xlink:show="embed" xmlns:xlink="http://www.w3.org/1999/xlink" filter="url(#id40)"/></g></g><g><g transform="translate(303.0 7.150000000000006)"><path fill-opacity="1.0" fill="#ffffff" stroke-linejoin="round" id="id1" d="M0.0 0.0 L418.0 0.0 L418.0 25.0 L0.0 25.0 L0.0 0.0z" stroke="#000000" stroke-width="1.0"/><path fill-opacity="1.0" fill="#ffffff" stroke-linejoin="round" id="id3" d="M0.0 25.0 L418.0 25.0 L418.0 315.70000000000005 L0.0 315.70000000000005 L0.0 25.0z" stroke="#000000" stroke-width="1.0"/><g transform="translate(0.0 0.0)"><clipPath id="id4"><path d="M0 0 L418.0 0 L418.0 25.0 L0 25.0z"/></clipPath><text font-size="12" clip-path="url(#id4)" text-decoration="none" fill="#000000" font-family="Arial,Arial" font-style="normal" font-weight="bold"><tspan x="187.0" xml:space="preserve" y="16.5" textLength="44.0">System</tspan></text></g><g transform="translate(5.0 30.0)"><clipPath id="id5"><path d="M0 0 L408.0 0 L408.0 280.70000000000005 L0 280.70000000000005z"/></clipPath><text font-size="10" clip-path="url(#id5)" text-decoration="none" fill="#000000" font-family="Arial,Arial" font-style="normal" font-weight="normal"/></g></g><g transform="translate(188.0 130.05)"><path fill-opacity="1.0" fill="#ffffff" stroke-linejoin="round" id="id7" d="M60.0 10.0 Q60.0 11.98912367379658 59.23879532511287 13.826834323650898 Q58.477590650225736 15.664544973505215 57.071067811865476 17.071067811865476 Q55.664544973505215 18.477590650225736 53.8268343236509 19.238795325112868 Q51.989123673796584 20.0 50.0 20.0 Q48.010876326203416 20.0 46.1731656763491 19.238795325112868 Q44.335455026494785 18.477590650225736 42.928932188134524 17.071067811865476 Q41.522409349774264 15.664544973505215 40.76120467488713 13.8268343236509 Q40.0 11.98912367379658 40.0 10.000000000000002 Q40.0 8.010876326203423 40.76120467488713 6.173165676349104 Q41.522409349774264 4.335455026494786 42.928932188134524 2.9289321881345254 Q44.335455026494785 1.522409349774268 46.1731656763491 0.7612046748871357 Q48.010876326203416 0.0 50.0 0.0 Q51.989123673796584 0.0 53.8268343236509 0.761204674887134 Q55.664544973505215 1.522409349774266 57.071067811865476 2.9289321881345227 Q58.47759065022573 4.335455026494781 59.23879532511286 6.173165676349096 Q60.0 8.010876326203416 60.0 10.0z" stroke="#000000" stroke-width="1.0"/><path fill="none" id="id9" d="M50.0 20.0 L50.0 40.0" stroke-width="1.0" stroke-linejoin="round" stroke="#000000"/><path fill="none" id="id11" d="M35.0 30.0 L65.0 30.0" stroke-width="1.0" stroke-linejoin="round" stroke="#000000"/><path fill="none" id="id13" d="M50.0 40.0 L35.0 60.0" stroke-width="1.0" stroke-linejoin="round" stroke="#000000"/><path fill="none" id="id15" d="M50.0 40.0 L65.0 60.0" stroke-width="1.0" stroke-linejoin="round" stroke="#000000"/><g transform="translate(0.0 60.0)"><clipPath id="id16"><path d="M0 0 L100.0 0 L100.0 30.0 L0 30.0z"/></clipPath><text font-size="12" clip-path="url(#id16)" text-decoration="none" fill="#000000" font-family="Arial,Arial" font-style="normal" font-weight="bold"><tspan x="28.0" xml:space="preserve" y="12.0" textLength="47.0">Content </tspan><tspan x="3.0" xml:space="preserve" y="26.0" textLength="93.0">Application User</tspan></text></g></g><g transform="translate(338.0 135.05)"><path fill-opacity="1.0" fill="#ffffff" stroke-linejoin="round" id="id18" d="M150.0 40.0 Q150.0 47.95649469518632 144.29096493834652 55.30733729460359 Q138.581929876693 62.65817989402086 128.03300858899107 68.2842712474619 Q117.48408730128914 73.91036260090294 103.70125742738172 76.95518130045147 Q89.91842755347434 80.0 75.0 80.0 Q60.081572446525655 80.0 46.298742572618266 76.95518130045147 Q32.515912698710885 73.91036260090294 21.96699141100894 68.2842712474619 Q11.418070123307004 62.65817989402087 5.709035061653495 55.3073372946036 Q0.0 47.95649469518632 0.0 40.00000000000001 Q-1.4210854715202004E-14 32.04350530481369 5.709035061653481 24.692662705396415 Q11.418070123307004 17.341820105979142 21.966991411008927 11.715728752538102 Q32.515912698710885 6.089637399097057 46.298742572618224 3.044818699548543 Q60.081572446525605 7.105427357601002E-15 74.99999999999999 0.0 Q89.91842755347436 -1.4210854715202004E-14 103.70125742738176 3.044818699548536 Q117.48408730128912 6.08963739909705 128.03300858899104 11.71572875253809 Q138.58192987669298 17.34182010597912 144.2909649383465 24.692662705396383 Q150.0 32.04350530481367 150.0 40.0z" stroke="#000000" stroke-width="1.0"/><g transform="translate(0.0 0.0)"><clipPath id="id19"><path d="M0 0 L150.0 0 L150.0 80.0 L0 80.0z"/></clipPath><text font-size="12" clip-path="url(#id19)" text-decoration="none" fill="#000000" font-family="Arial,Arial" font-style="normal" font-weight="bold"><tspan x="39.0" xml:space="preserve" y="37.0" textLength="74.0">Start robot&apos;s </tspan><tspan x="40.0" xml:space="preserve" y="51.0" textLength="69.0">applications</tspan></text></g></g><g transform="translate(338.0 44.5)"><path fill-opacity="1.0" fill="#ffffff" stroke-linejoin="round" id="id21" d="M150.0 40.0 Q150.0 47.95649469518632 144.29096493834652 55.30733729460359 Q138.581929876693 62.65817989402086 128.03300858899107 68.2842712474619 Q117.48408730128914 73.91036260090294 103.70125742738172 76.95518130045147 Q89.91842755347434 80.0 75.0 80.0 Q60.081572446525655 80.0 46.298742572618266 76.95518130045147 Q32.515912698710885 73.91036260090294 21.96699141100894 68.2842712474619 Q11.418070123307004 62.65817989402087 5.709035061653495 55.3073372946036 Q0.0 47.95649469518632 0.0 40.00000000000001 Q-1.4210854715202004E-14 32.04350530481369 5.709035061653481 24.692662705396415 Q11.418070123307004 17.341820105979142 21.966991411008927 11.715728752538102 Q32.515912698710885 6.089637399097057 46.298742572618224 3.044818699548543 Q60.081572446525605 7.105427357601002E-15 74.99999999999999 0.0 Q89.91842755347436 -1.4210854715202004E-14 103.70125742738176 3.044818699548536 Q117.48408730128912 6.08963739909705 128.03300858899104 11.71572875253809 Q138.58192987669298 17.34182010597912 144.2909649383465 24.692662705396383 Q150.0 32.04350530481367 150.0 40.0z" stroke="#000000" stroke-width="1.0"/><g transform="translate(0.0 0.0)"><clipPath id="id22"><path d="M0 0 L150.0 0 L150.0 80.0 L0 80.0z"/></clipPath><text font-size="12" clip-path="url(#id22)" text-decoration="none" fill="#000000" font-family="Arial,Arial" font-style="normal" font-weight="bold"><tspan x="25.0" xml:space="preserve" y="44.0" textLength="99.0">Retrieve Screens</tspan></text></g></g><g transform="translate(530.0 44.5)"><path fill-opacity="1.0" fill="#ffffff" stroke-linejoin="round" id="id24" d="M150.0 40.0 Q150.0 47.95649469518632 144.29096493834652 55.30733729460359 Q138.581929876693 62.65817989402086 128.03300858899107 68.2842712474619 Q117.48408730128914 73.91036260090294 103.70125742738172 76.95518130045147 Q89.91842755347434 80.0 75.0 80.0 Q60.081572446525655 80.0 46.298742572618266 76.95518130045147 Q32.515912698710885 73.91036260090294 21.96699141100894 68.2842712474619 Q11.418070123307004 62.65817989402087 5.709035061653495 55.3073372946036 Q0.0 47.95649469518632 0.0 40.00000000000001 Q-1.4210854715202004E-14 32.04350530481369 5.709035061653481 24.692662705396415 Q11.418070123307004 17.341820105979142 21.966991411008927 11.715728752538102 Q32.515912698710885 6.089637399097057 46.298742572618224 3.044818699548543 Q60.081572446525605 7.105427357601002E-15 74.99999999999999 0.0 Q89.91842755347436 -1.4210854715202004E-14 103.70125742738176 3.044818699548536 Q117.48408730128912 6.08963739909705 128.03300858899104 11.71572875253809 Q138.58192987669298 17.34182010597912 144.2909649383465 24.692662705396383 Q150.0 32.04350530481367 150.0 40.0z" stroke="#000000" stroke-width="1.0"/><g transform="translate(0.0 0.0)"><clipPath id="id25"><path d="M0 0 L150.0 0 L150.0 80.0 L0 80.0z"/></clipPath><text font-size="12" clip-path="url(#id25)" text-decoration="none" fill="#000000" font-family="Arial,Arial" font-style="normal" font-weight="bold"><tspan x="61.0" xml:space="preserve" y="37.0" textLength="28.0">Start</tspan><tspan x="16.0" xml:space="preserve" y="51.0" textLength="117.0">Contents Application</tspan></text></g></g><g transform="translate(338.0 228.0)"><path fill-opacity="1.0" fill="#ffffff" stroke-linejoin="round" id="id27" d="M150.0 40.0 Q150.0 47.95649469518632 144.29096493834652 55.30733729460359 Q138.581929876693 62.65817989402086 128.03300858899107 68.2842712474619 Q117.48408730128914 73.91036260090294 103.70125742738172 76.95518130045147 Q89.91842755347434 80.0 75.0 80.0 Q60.081572446525655 80.0 46.298742572618266 76.95518130045147 Q32.515912698710885 73.91036260090294 21.96699141100894 68.2842712474619 Q11.418070123307004 62.65817989402087 5.709035061653495 55.3073372946036 Q0.0 47.95649469518632 0.0 40.00000000000001 Q-1.4210854715202004E-14 32.04350530481369 5.709035061653481 24.692662705396415 Q11.418070123307004 17.341820105979142 21.966991411008927 11.715728752538102 Q32.515912698710885 6.089637399097057 46.298742572618224 3.044818699548543 Q60.081572446525605 7.105427357601002E-15 74.99999999999999 0.0 Q89.91842755347436 -1.4210854715202004E-14 103.70125742738176 3.044818699548536 Q117.48408730128912 6.08963739909705 128.03300858899104 11.71572875253809 Q138.58192987669298 17.34182010597912 144.2909649383465 24.692662705396383 Q150.0 32.04350530481367 150.0 40.0z" stroke="#000000" stroke-width="1.0"/><g transform="translate(0.0 0.0)"><clipPath id="id28"><path d="M0 0 L150.0 0 L150.0 80.0 L0 80.0z"/></clipPath><text font-size="12" clip-path="url(#id28)" text-decoration="none" fill="#000000" font-family="Arial,Arial" font-style="normal" font-weight="bold"><tspan x="15.0" xml:space="preserve" y="44.0" textLength="119.0">Update Configuration</tspan></text></g></g><g transform="translate(741.0 79.5)"><path fill-opacity="1.0" fill="#ffffff" stroke-linejoin="round" id="id30" d="M60.0 10.0 Q60.0 11.98912367379658 59.23879532511287 13.826834323650898 Q58.477590650225736 15.664544973505215 57.071067811865476 17.071067811865476 Q55.664544973505215 18.477590650225736 53.8268343236509 19.238795325112868 Q51.989123673796584 20.0 50.0 20.0 Q48.010876326203416 20.0 46.1731656763491 19.238795325112868 Q44.335455026494785 18.477590650225736 42.928932188134524 17.071067811865476 Q41.522409349774264 15.664544973505215 40.76120467488713 13.8268343236509 Q40.0 11.98912367379658 40.0 10.000000000000002 Q40.0 8.010876326203423 40.76120467488713 6.173165676349104 Q41.522409349774264 4.335455026494786 42.928932188134524 2.9289321881345254 Q44.335455026494785 1.522409349774268 46.1731656763491 0.7612046748871357 Q48.010876326203416 0.0 50.0 0.0 Q51.989123673796584 0.0 53.8268343236509 0.761204674887134 Q55.664544973505215 1.522409349774266 57.071067811865476 2.9289321881345227 Q58.47759065022573 4.335455026494781 59.23879532511286 6.173165676349096 Q60.0 8.010876326203416 60.0 10.0z" stroke="#000000" stroke-width="1.0"/><path fill="none" id="id32" d="M50.0 20.0 L50.0 40.0" stroke-width="1.0" stroke-linejoin="round" stroke="#000000"/><path fill="none" id="id34" d="M35.0 30.0 L65.0 30.0" stroke-width="1.0" stroke-linejoin="round" stroke="#000000"/><path fill="none" id="id36" d="M50.0 40.0 L35.0 60.0" stroke-width="1.0" stroke-linejoin="round" stroke="#000000"/><path fill="none" id="id38" d="M50.0 40.0 L65.0 60.0" stroke-width="1.0" stroke-linejoin="round" stroke="#000000"/><g transform="translate(0.0 60.0)"><clipPath id="id39"><path d="M0 0 L100.0 0 L100.0 30.0 L0 30.0z"/></clipPath><text font-size="12" clip-path="url(#id39)" text-decoration="none" fill="#000000" font-family="Arial,Arial" font-style="normal" font-weight="bold"><tspan x="6.0" xml:space="preserve" y="19.0" textLength="87.0">robotBehaviour</tspan></text></g></g><path fill="none" d="M288.0 175.05 L338.0 84.5" stroke-width="1.0" stroke-linejoin="round" stroke="#000000"/><path fill="none" d="M288.0 175.05 L338.0 175.05" stroke-width="1.0" stroke-linejoin="round" stroke="#000000"/><path fill="none" d="M288.0 175.05 L338.0 268.0" stroke-width="1.0" stroke-linejoin="round" stroke="#000000"/><path fill="none" d="M741.0 124.5 L680.0 84.5" stroke-width="1.0" stroke-linejoin="round" stroke="#000000"/><g transform="translate(530.0 135.05)"><path fill-opacity="1.0" fill="#ffffff" stroke-linejoin="round" id="id41" d="M150.0 40.0 Q150.0 47.95649469518632 144.29096493834652 55.30733729460359 Q138.581929876693 62.65817989402086 128.03300858899107 68.2842712474619 Q117.48408730128914 73.91036260090294 103.70125742738172 76.95518130045147 Q89.91842755347434 80.0 75.0 80.0 Q60.081572446525655 80.0 46.298742572618266 76.95518130045147 Q32.515912698710885 73.91036260090294 21.96699141100894 68.2842712474619 Q11.418070123307004 62.65817989402087 5.709035061653495 55.3073372946036 Q0.0 47.95649469518632 0.0 40.00000000000001 Q-1.4210854715202004E-14 32.04350530481369 5.709035061653481 24.692662705396415 Q11.418070123307004 17.341820105979142 21.966991411008927 11.715728752538102 Q32.515912698710885 6.089637399097057 46.298742572618224 3.044818699548543 Q60.081572446525605 7.105427357601002E-15 74.99999999999999 0.0 Q89.91842755347436 -1.4210854715202004E-14 103.70125742738176 3.044818699548536 Q117.48408730128912 6.08963739909705 128.03300858899104 11.71572875253809 Q138.58192987669298 17.34182010597912 144.2909649383465 24.692662705396383 Q150.0 32.04350530481367 150.0 40.0z" stroke="#000000" stroke-width="1.0"/><g transform="translate(0.0 0.0)"><clipPath id="id42"><path d="M0 0 L150.0 0 L150.0 80.0 L0 80.0z"/></clipPath><text font-size="12" clip-path="url(#id42)" text-decoration="none" fill="#000000" font-family="Arial,Arial" font-style="normal" font-weight="bold"><tspan x="16.0" xml:space="preserve" y="44.0" textLength="117.0">Create Configuration</tspan></text></g></g><path fill="none" d="M741.0 124.5 L680.0 175.05" stroke-width="1.0" stroke-linejoin="round" stroke="#000000"/></g></svg>